HIERARCHY
ROOT hip
{
  OFFSET 0 0 0
  CHANNELS 6 Xposition Yposition Zposition Zrotation Yrotation Xrotation
  JOINT abdomen
  {
    OFFSET 0 20.6881 -0.73152
    CHANNELS 3 Zrotation Xrotation Yrotation
    JOINT chest
    {
      OFFSET 0 11.7043 -0.48768
      CHANNELS 3 Zrotation Xrotation Yrotation
      JOINT neck
      {
        OFFSET 0 22.1894 -2.19456
        CHANNELS 3 Zrotation Xrotation Yrotation
        JOINT head
        {
          OFFSET -0.24384 7.07133 1.2192
          CHANNELS 3 Zrotation Xrotation Yrotation
          JOINT leftEye
          {
            OFFSET 4.14528 8.04674 8.04672
            CHANNELS 3 Zrotation Xrotation Yrotation
            End Site
            {
              OFFSET 1 0 0
            }
          }
          JOINT rightEye
          {
            OFFSET -3.6576 8.04674 8.04672
            CHANNELS 3 Zrotation Xrotation Yrotation
            End Site
            {
              OFFSET 1 0 0
            }
          }
        }
      }
      JOINT rCollar
      {
        OFFSET -2.68224 19.2634 -4.8768
        CHANNELS 3 Zrotation Xrotation Yrotation
        JOINT rShldr
        {
          OFFSET -8.77824 -1.95073 1.46304
          CHANNELS 3 Zrotation Xrotation Yrotation
          JOINT rForeArm
          {
            OFFSET -28.1742 -1.7115 0.48768
            CHANNELS 3 Zrotation Xrotation Yrotation
            JOINT rHand
            {
              OFFSET -22.5879 0.773209 7.07136
              CHANNELS 3 Zrotation Xrotation Yrotation
              JOINT rThumb1
              {
                OFFSET -1.2192 -0.487915 3.41376
                CHANNELS 3 Zrotation Xrotation Yrotation
                JOINT rThumb2
                {
                  OFFSET -3.37035 -0.52449 3.41376
                  CHANNELS 3 Zrotation Xrotation Yrotation
                  End Site
                  {
                    OFFSET -1.78271 -1.18214 1.43049
                  }
                }
              }
              JOINT rIndex1
              {
                OFFSET -7.75947 0.938293 5.60832
                CHANNELS 3 Zrotation Xrotation Yrotation
                JOINT rIndex2
                {
                  OFFSET -2.54057 -0.884171 1.56538
                  CHANNELS 3 Zrotation Xrotation Yrotation
                  End Site
                  {
                    OFFSET -1.62519 -0.234802 1.16502
                  }
                }
              }
              JOINT rMid1
              {
                OFFSET -8.24714 1.18213 3.41376
                CHANNELS 3 Zrotation Xrotation Yrotation
                JOINT rMid2
                {
                  OFFSET -3.10165 -0.590103 1.0647
                  CHANNELS 3 Zrotation Xrotation Yrotation
                  End Site
                  {
                    OFFSET -2.48547 -0.328903 0.83742
                  }
                }
              }
              JOINT rRing1
              {
                OFFSET -8.82822 0.546677 1.51678
                CHANNELS 3 Zrotation Xrotation Yrotation
                JOINT rRing2
                {
                  OFFSET -2.60934 -0.819778 -0.0198488
                  CHANNELS 3 Zrotation Xrotation Yrotation
                  End Site
                  {
                    OFFSET -2.33842 -0.294052 0.168128
                  }
                }
              }
              JOINT rPinky1
              {
                OFFSET -8.27202 -0.0477905 -0.4584
                CHANNELS 3 Zrotation Xrotation Yrotation
                JOINT rPinky2
                {
                  OFFSET -1.82734 -0.647385 -0.700984
                  CHANNELS 3 Zrotation Xrotation Yrotation
                  End Site
                  {
                    OFFSET -1.69225 -0.51767 -0.607171
                  }
                }
              }
            }
          }
        }
      }
      JOINT lCollar
      {
        OFFSET 2.68224 19.2634 -4.8768
        CHANNELS 3 Zrotation Xrotation Yrotation
        JOINT lShldr
        {
          OFFSET 8.77824 -1.95073 1.46304
          CHANNELS 3 Zrotation Xrotation Yrotation
          JOINT lForeArm
          {
            OFFSET 28.1742 -1.7115 0.48768
            CHANNELS 3 Zrotation Xrotation Yrotation
            JOINT lHand
            {
              OFFSET 22.5879 0.773209 7.07136
              CHANNELS 3 Zrotation Xrotation Yrotation
              JOINT lThumb1
              {
                OFFSET 1.2192 -0.487915 3.41376
                CHANNELS 3 Zrotation Xrotation Yrotation
                JOINT lThumb2
                {
                  OFFSET 3.37035 -0.52449 3.41376
                  CHANNELS 3 Zrotation Xrotation Yrotation
                  End Site
                  {
                    OFFSET 1.78271 -1.18214 1.43049
                  }
                }
              }
              JOINT lIndex1
              {
                OFFSET 7.75947 0.938293 5.60832
                CHANNELS 3 Zrotation Xrotation Yrotation
                JOINT lIndex2
                {
                  OFFSET 2.54057 -0.884171 1.56538
                  CHANNELS 3 Zrotation Xrotation Yrotation
                  End Site
                  {
                    OFFSET 1.62519 -0.234802 1.16502
                  }
                }
              }
              JOINT lMid1
              {
                OFFSET 8.24714 1.18213 3.41376
                CHANNELS 3 Zrotation Xrotation Yrotation
                JOINT lMid2
                {
                  OFFSET 3.10165 -0.590103 1.0647
                  CHANNELS 3 Zrotation Xrotation Yrotation
                  End Site
                  {
                    OFFSET 2.48547 -0.328903 0.83742
                  }
                }
              }
              JOINT lRing1
              {
                OFFSET 8.82822 0.546677 1.51678
                CHANNELS 3 Zrotation Xrotation Yrotation
                JOINT lRing2
                {
                  OFFSET 2.60934 -0.819778 -0.0198488
                  CHANNELS 3 Zrotation Xrotation Yrotation
                  End Site
                  {
                    OFFSET 2.33842 -0.294052 0.168128
                  }
                }
              }
              JOINT lPinky1
              {
                OFFSET 8.27202 -0.0477905 -0.4584
                CHANNELS 3 Zrotation Xrotation Yrotation
                JOINT lPinky2
                {
                  OFFSET 1.82734 -0.647385 -0.700984
                  CHANNELS 3 Zrotation Xrotation Yrotation
                  End Site
                  {
                    OFFSET 1.69225 -0.51767 -0.607171
                  }
                }
              }
            }
          }
        }
      }
    }
  }
  JOINT rButtock
  {
    OFFSET -8.77824 4.35084 1.2192
    CHANNELS 3 Zrotation Xrotation Yrotation
    JOINT rThigh
    {
      OFFSET 0 -1.70687 -2.19456
      CHANNELS 3 Zrotation Xrotation Yrotation
      JOINT rShin
      {
        OFFSET 0 -36.8199 0.73152
        CHANNELS 3 Zrotation Xrotation Yrotation
        JOINT rFoot
        {
          OFFSET 0.73152 -45.1104 -5.12064
          CHANNELS 3 Zrotation Xrotation Yrotation
          End Site
          {
            OFFSET -1.1221 -3.69964 12.103
          }
        }
      }
    }
  }
  JOINT lButtock
  {
    OFFSET 8.77824 4.35084 1.2192
    CHANNELS 3 Zrotation Xrotation Yrotation
    JOINT lThigh
    {
      OFFSET 0 -1.70687 -2.19456
      CHANNELS 3 Zrotation Xrotation Yrotation
      JOINT lShin
      {
        OFFSET 0 -36.8199 0.73152
        CHANNELS 3 Zrotation Xrotation Yrotation
        JOINT lFoot
        {
          OFFSET -0.73152 -45.1104 -5.12064
          CHANNELS 3 Zrotation Xrotation Yrotation
          End Site
          {
            OFFSET 1.1221 -3.69964 12.103
          }
        }
      }
    }
  }
}
MOTION
Frames:	4
Frame Time:	0.00833333
51.9576 84.1045 131.566 180.402 11.3733 183.097 3.53349 5.89908 2.93015 0.155682 -8.86426 1.01911 -5.85896 10.3225 -0.707349 10.9941 -30.7132 2.36095 -0.0 0.0 0.0 -0.0 0.0 0.0 1.86166e-14 3.24788e-14 -1.79816e-13 79.4023 26.6272 -11.2291 -16.6988 -9.35311 31.1618 -0.514291 19.9477 2.92378 5.58532e-10 -4.63747e-10 -2.8203e-10 9.59671e-10 -7.92568e-10 -4.97415e-10 5.58533e-10 -4.63752e-10 -2.82038e-10 7.73091 5.47488 0.417314 5.5853e-10 -4.63751e-10 -2.8203e-10 2.90554 0.965183 0.102902 5.58534e-10 -4.63752e-10 -2.82031e-10 10.2786 0.731801 0.0259123 5.58525e-10 -4.63751e-10 -2.82021e-10 2.22167 -0.733487 -0.20892 1.85729e-14 3.24754e-14 -1.79891e-13 -82.5038 28.2807 14.1424 15.9441 -8.63644 -29.5524 0.241947 13.8962 -1.99233 6.25888e-10 1.16109e-10 -2.41218e-10 1.07887e-09 1.91603e-10 -4.26369e-10 6.25886e-10 1.16114e-10 -2.41205e-10 -7.73091 5.47488 -0.417314 6.25884e-10 1.16103e-10 -2.41231e-10 -2.90554 0.965183 -0.102902 6.25889e-10 1.16114e-10 -2.41216e-10 -10.2786 0.731801 -0.0259123 6.25887e-10 1.16115e-10 -2.41226e-10 -2.22167 -0.733487 0.20892 -2.03217e-16 0.0 -3.88251e-19 8.35384 -14.969 13.5305 -0.023842 28.3491 0.521619 -6.72462 -14.2925 -20.3083 2.03217e-16 0.0 3.88251e-19 -3.25509 -12.2834 -7.68352 0.127382 24.1747 -0.681106 8.48629 -17.8135 19.7221
51.9689 84.0091 131.6 180.475 11.4572 183.221 3.61273 6.07669 2.96292 0.125848 -8.96721 1.02664 -5.78247 10.3003 -0.697077 10.8369 -30.9461 2.36379 -0.0 0.0 0.0 -0.0 0.0 0.0 -8.78708e-15 7.72911e-14 -3.89903e-13 79.2231 26.5553 -11.1796 -16.6453 -9.30093 31.0468 -0.511415 19.8949 2.91538 1.59547e-09 -1.38535e-09 -2.16176e-10 2.75263e-09 -2.37599e-09 -4.01782e-10 1.59547e-09 -1.38536e-09 -2.16185e-10 7.73091 5.47488 0.417314 1.59547e-09 -1.38536e-09 -2.1618e-10 2.90554 0.965183 0.102902 1.59548e-09 -1.38536e-09 -2.16178e-10 10.2786 0.731801 0.0259123 1.59547e-09 -1.38536e-09 -2.16169e-10 2.22167 -0.733487 -0.20892 -8.8599e-15 7.72899e-14 -3.90014e-13 -82.2647 27.7272 13.889 15.7342 -8.44375 -29.1108 0.275332 14.795 -2.12703 1.23464e-09 4.29579e-10 -2.56141e-10 2.1296e-09 7.26166e-10 -4.6038e-10 1.23464e-09 4.29581e-10 -2.56128e-10 -7.73091 5.47488 -0.417314 1.23464e-09 4.29571e-10 -2.5615e-10 -2.90554 0.965183 -0.102902 1.23464e-09 4.29583e-10 -2.56141e-10 -10.2786 0.731801 -0.0259123 1.23464e-09 4.29584e-10 -2.56148e-10 -2.22167 -0.733487 0.20892 -2.03217e-16 0.0 -3.88251e-19 8.33868 -15.3519 13.1738 -0.0309706 28.7618 0.535236 -6.78567 -14.6072 -20.116 2.03217e-16 0.0 3.88251e-19 -3.10847 -12.7042 -7.17719 0.130104 24.656 -0.6893 8.45287 -18.157 19.3965
51.9734 83.9017 131.634 180.536 11.4674 183.321 3.68189 6.24559 2.93582 0.111996 -9.03642 1.01756 -5.69512 10.2792 -0.676255 10.6949 -31.2555 2.40285 -0.0 0.0 0.0 -0.0 0.0 0.0 -2.44846e-14 9.84104e-14 -5.23102e-13 79.0385 26.507 -11.0871 -16.6042 -9.26079 30.9585 -0.510002 19.8689 2.91123 2.25302e-09 -1.99113e-09 -1.6703e-10 3.88971e-09 -3.41726e-09 -3.28333e-10 2.25302e-09 -1.99113e-09 -1.6704e-10 7.73091 5.47488 0.417314 2.25302e-09 -1.99113e-09 -1.67036e-10 2.90554 0.965183 0.102902 2.25302e-09 -1.99114e-09 -1.67032e-10 10.2786 0.731801 0.0259123 2.25301e-09 -1.99114e-09 -1.67024e-10 2.22167 -0.733487 -0.20892 -2.45671e-14 9.8411e-14 -5.23251e-13 -82.0478 27.2418 13.6284 15.5587 -8.28357 -28.7464 0.30746 15.5845 -2.2465 1.65145e-09 6.03148e-10 -3.18125e-10 2.84819e-09 1.02058e-09 -5.73397e-10 1.65145e-09 6.03148e-10 -3.18113e-10 -7.73091 5.47488 -0.417314 1.65144e-09 6.0314e-10 -3.18132e-10 -2.90554 0.965183 -0.102902 1.65145e-09 6.0315e-10 -3.18126e-10 -10.2786 0.731801 -0.0259123 1.65145e-09 6.03151e-10 -3.18132e-10 -2.22167 -0.733487 0.20892 -2.03217e-16 0.0 -3.88251e-19 8.33424 -15.7951 12.8123 -0.0387326 29.2283 0.550692 -6.85004 -14.9275 -19.9298 2.03217e-16 0.0 3.88251e-19 -2.95205 -13.2279 -6.63966 0.133883 25.2402 -0.698129 8.3879 -18.4802 19.0214
51.9518 83.7918 131.684 180.505 11.4145 183.463 3.72445 6.39826 2.82168 0.119446 -9.04356 0.983789 -5.58303 10.2658 -0.640721 10.5723 -31.6855 2.49216 -0.0 0.0 0.0 -0.0 0.0 0.0 -2.26104e-14 7.83754e-14 -5.49426e-13 78.8521 26.4827 -10.9313 -16.5826 -9.23977 30.9125 -0.511539 19.8972 2.91574 2.36986e-09 -2.17624e-09 -1.29471e-10 4.09218e-09 -3.73695e-09 -2.65351e-10 2.36986e-09 -2.17624e-09 -1.2948e-10 7.73091 5.47488 0.417314 2.36986e-09 -2.17624e-09 -1.29477e-10 2.90554 0.965183 0.102902 2.36986e-09 -2.17624e-09 -1.29473e-10 10.2786 0.731801 0.0259123 2.36985e-09 -2.17624e-09 -1.29463e-10 2.22167 -0.733487 -0.20892 -2.26674e-14 7.83771e-14 -5.49623e-13 -81.8376 26.8106 13.341 15.4239 -8.16173 -28.4682 0.336963 16.2782 -2.35214 1.84249e-09 5.76923e-10 -4.8994e-10 3.17544e-09 9.71059e-10 -8.73752e-10 1.84249e-09 5.76923e-10 -4.89929e-10 -7.73091 5.47488 -0.417314 1.84249e-09 5.76916e-10 -4.89945e-10 -2.90554 0.965183 -0.102902 1.84249e-09 5.76925e-10 -4.89943e-10 -10.2786 0.731801 -0.0259123 1.84249e-09 5.76925e-10 -4.89948e-10 -2.22167 -0.733487 0.20892 -2.03217e-16 0.0 -3.88251e-19 8.33282 -16.2996 12.4541 -0.0472508 29.7456 0.568327 -6.9202 -15.2596 -19.7506 2.03217e-16 0.0 3.88251e-19 -2.78206 -13.8768 -6.04856 0.138969 25.9424 -0.707307 8.27346 -18.7611 18.5718
